<svg width="16" height="13" viewBox="0 0 16 13" fill="none" xmlns="http://www.w3.org/2000/svg">
<path d="M0 13V9.00539C0 7.89578 0.203227 6.77448 0.609681 5.64151C1.02712 4.49685 1.5654 3.43396 2.22451 2.45283C2.89461 1.46002 3.58668 0.642408 4.30072 0L7.72812 1.9973C7.13491 3.02516 6.66255 4.09973 6.31102 5.22102C5.95949 6.33064 5.78922 7.58625 5.80021 8.98787V13H0ZM8.27189 13V9.00539C8.27189 7.89578 8.47511 6.77448 8.88157 5.64151C9.29901 4.49685 9.83728 3.43396 10.4964 2.45283C11.1665 1.46002 11.8586 0.642408 12.5726 0L16 1.9973C15.4068 3.02516 14.9344 4.09973 14.5829 5.22102C14.2314 6.33064 14.0611 7.58625 14.0721 8.98787V13H8.27189Z" fill="#031C0C"/>
</svg>
