<svg width="217" height="186" viewBox="0 0 217 186" fill="none" xmlns="http://www.w3.org/2000/svg">
<circle cx="108.5" cy="57" r="55.5" stroke="#E8F3EC" stroke-width="3"/>
<path d="M22.824 134L28.008 122.72H30.072L35.32 134H32.792L31.432 130.864L32.408 131.552H25.704L26.696 130.864L25.336 134H22.824ZM29.032 125.344L26.968 130.24L26.536 129.632H31.576L31.208 130.24L29.096 125.344H29.032ZM39.9105 137.584C39.1318 137.584 38.4385 137.504 37.8305 137.344C37.2225 137.195 36.6785 136.965 36.1985 136.656L36.6625 134.928C36.9612 135.12 37.2758 135.275 37.6065 135.392C37.9478 135.52 38.2945 135.611 38.6465 135.664C39.0092 135.728 39.3665 135.76 39.7185 135.76C40.4332 135.76 40.9665 135.589 41.3185 135.248C41.6705 134.907 41.8465 134.421 41.8465 133.792V132.112H42.0065C41.8358 132.624 41.4945 133.035 40.9825 133.344C40.4705 133.653 39.8945 133.808 39.2545 133.808C38.5292 133.808 37.8945 133.643 37.3505 133.312C36.8172 132.981 36.4012 132.512 36.1025 131.904C35.8038 131.296 35.6545 130.581 35.6545 129.76C35.6545 128.939 35.8038 128.224 36.1025 127.616C36.4012 127.008 36.8172 126.544 37.3505 126.224C37.8945 125.893 38.5292 125.728 39.2545 125.728C39.9052 125.728 40.4758 125.883 40.9665 126.192C41.4678 126.491 41.8038 126.891 41.9745 127.392L41.8465 127.328L42.0065 125.888H44.3425C44.2998 126.24 44.2678 126.597 44.2465 126.96C44.2252 127.312 44.2145 127.659 44.2145 128V133.52C44.2145 134.832 43.8465 135.835 43.1105 136.528C42.3745 137.232 41.3078 137.584 39.9105 137.584ZM39.9745 131.984C40.5398 131.984 40.9878 131.792 41.3185 131.408C41.6492 131.024 41.8145 130.475 41.8145 129.76C41.8145 129.045 41.6492 128.501 41.3185 128.128C40.9878 127.744 40.5398 127.552 39.9745 127.552C39.3878 127.552 38.9238 127.744 38.5825 128.128C38.2518 128.501 38.0865 129.045 38.0865 129.76C38.0865 130.475 38.2518 131.024 38.5825 131.408C38.9238 131.792 39.3878 131.984 39.9745 131.984ZM50.2595 134.176C48.8515 134.176 47.7528 133.797 46.9635 133.04C46.1742 132.283 45.7795 131.253 45.7795 129.952C45.7795 129.109 45.9448 128.373 46.2755 127.744C46.6168 127.115 47.0862 126.624 47.6835 126.272C48.2915 125.909 49.0008 125.728 49.8115 125.728C50.6115 125.728 51.2782 125.899 51.8115 126.24C52.3555 126.581 52.7608 127.061 53.0275 127.68C53.3048 128.288 53.4435 128.997 53.4435 129.808V130.368H47.7635V129.168H51.6835L51.4115 129.392C51.4115 128.72 51.2728 128.213 50.9955 127.872C50.7288 127.52 50.3395 127.344 49.8275 127.344C49.2622 127.344 48.8248 127.552 48.5155 127.968C48.2168 128.384 48.0675 128.981 48.0675 129.76V130.016C48.0675 130.805 48.2595 131.392 48.6435 131.776C49.0382 132.16 49.6035 132.352 50.3395 132.352C50.7768 132.352 51.1875 132.299 51.5715 132.192C51.9662 132.075 52.3395 131.893 52.6915 131.648L53.3635 133.248C52.9582 133.547 52.4888 133.776 51.9555 133.936C51.4328 134.096 50.8675 134.176 50.2595 134.176ZM54.9764 134V128C54.9764 127.659 54.9657 127.312 54.9444 126.96C54.923 126.597 54.891 126.24 54.8484 125.888H57.1684L57.3444 127.392H57.1524C57.419 126.859 57.7977 126.448 58.2884 126.16C58.779 125.872 59.3497 125.728 60.0004 125.728C60.9497 125.728 61.659 126.005 62.1284 126.56C62.6084 127.104 62.8484 127.952 62.8484 129.104V134H60.4324V129.216C60.4324 128.629 60.3257 128.213 60.1124 127.968C59.899 127.723 59.579 127.6 59.1524 127.6C58.619 127.6 58.1924 127.771 57.8724 128.112C57.5524 128.443 57.3924 128.891 57.3924 129.456V134H54.9764ZM67.9729 134.176C67.2689 134.176 66.6449 134.005 66.1009 133.664C65.5675 133.323 65.1462 132.837 64.8369 132.208C64.5382 131.579 64.3889 130.821 64.3889 129.936C64.3889 129.061 64.5382 128.309 64.8369 127.68C65.1355 127.051 65.5569 126.571 66.1009 126.24C66.6449 125.899 67.2689 125.728 67.9729 125.728C68.6129 125.728 69.1835 125.883 69.6849 126.192C70.1969 126.491 70.5382 126.896 70.7089 127.408H70.5009V122.224H72.9169V134H70.5329V132.416H70.7409C70.5702 132.949 70.2289 133.376 69.7169 133.696C69.2049 134.016 68.6235 134.176 67.9729 134.176ZM68.6929 132.352C69.2475 132.352 69.6955 132.155 70.0369 131.76C70.3782 131.365 70.5489 130.757 70.5489 129.936C70.5489 129.115 70.3782 128.512 70.0369 128.128C69.6955 127.744 69.2475 127.552 68.6929 127.552C68.1382 127.552 67.6849 127.744 67.3329 128.128C66.9915 128.512 66.8209 129.115 66.8209 129.936C66.8209 130.757 66.9915 131.365 67.3329 131.76C67.6849 132.155 68.1382 132.352 68.6929 132.352ZM78.0503 134.176C77.3463 134.176 76.7276 134.005 76.1943 133.664C75.6609 133.323 75.2449 132.837 74.9463 132.208C74.6476 131.579 74.4983 130.821 74.4983 129.936C74.4983 129.061 74.6476 128.309 74.9463 127.68C75.2449 127.051 75.6609 126.571 76.1943 126.24C76.7276 125.899 77.3463 125.728 78.0503 125.728C78.7009 125.728 79.2823 125.888 79.7943 126.208C80.3169 126.517 80.6583 126.939 80.8183 127.472H80.6423L80.8343 125.888H83.1543C83.1223 126.24 83.0903 126.597 83.0583 126.96C83.0369 127.312 83.0263 127.659 83.0263 128V134H80.6263L80.6103 132.48H80.8023C80.6316 132.992 80.2903 133.403 79.7783 133.712C79.2663 134.021 78.6903 134.176 78.0503 134.176ZM78.7863 132.352C79.3409 132.352 79.7889 132.155 80.1303 131.76C80.4716 131.365 80.6423 130.757 80.6423 129.936C80.6423 129.115 80.4716 128.512 80.1303 128.128C79.7889 127.744 79.3409 127.552 78.7863 127.552C78.2316 127.552 77.7836 127.744 77.4423 128.128C77.1009 128.512 76.9303 129.115 76.9303 129.936C76.9303 130.757 77.0956 131.365 77.4263 131.76C77.7676 132.155 78.2209 132.352 78.7863 132.352ZM85.0076 134V128C85.0076 127.659 84.997 127.312 84.9756 126.96C84.9543 126.597 84.9223 126.24 84.8796 125.888H87.1996L87.3756 127.392H87.1836C87.4183 126.88 87.765 126.475 88.2236 126.176C88.6823 125.877 89.2263 125.728 89.8556 125.728C90.4743 125.728 90.9916 125.877 91.4076 126.176C91.8343 126.464 92.1383 126.917 92.3196 127.536H92.0636C92.2983 126.981 92.6716 126.544 93.1836 126.224C93.6956 125.893 94.277 125.728 94.9276 125.728C95.845 125.728 96.5276 126 96.9756 126.544C97.4236 127.088 97.6476 127.941 97.6476 129.104V134H95.2316V129.184C95.2316 128.619 95.141 128.213 94.9596 127.968C94.7783 127.723 94.485 127.6 94.0796 127.6C93.5996 127.6 93.221 127.771 92.9436 128.112C92.6663 128.453 92.5276 128.923 92.5276 129.52V134H90.1116V129.184C90.1116 128.619 90.021 128.213 89.8396 127.968C89.6583 127.723 89.365 127.6 88.9596 127.6C88.4796 127.6 88.101 127.771 87.8236 128.112C87.557 128.453 87.4236 128.923 87.4236 129.52V134H85.0076ZM103.666 134.176C102.258 134.176 101.159 133.797 100.37 133.04C99.5804 132.283 99.1858 131.253 99.1858 129.952C99.1858 129.109 99.3511 128.373 99.6818 127.744C100.023 127.115 100.492 126.624 101.09 126.272C101.698 125.909 102.407 125.728 103.218 125.728C104.018 125.728 104.684 125.899 105.218 126.24C105.762 126.581 106.167 127.061 106.434 127.68C106.711 128.288 106.85 128.997 106.85 129.808V130.368H101.17V129.168H105.09L104.818 129.392C104.818 128.72 104.679 128.213 104.402 127.872C104.135 127.52 103.746 127.344 103.234 127.344C102.668 127.344 102.231 127.552 101.922 127.968C101.623 128.384 101.474 128.981 101.474 129.76V130.016C101.474 130.805 101.666 131.392 102.05 131.776C102.444 132.16 103.01 132.352 103.746 132.352C104.183 132.352 104.594 132.299 104.978 132.192C105.372 132.075 105.746 131.893 106.098 131.648L106.77 133.248C106.364 133.547 105.895 133.776 105.362 133.936C104.839 134.096 104.274 134.176 103.666 134.176ZM108.383 134V128C108.383 127.659 108.372 127.312 108.351 126.96C108.329 126.597 108.297 126.24 108.255 125.888H110.575L110.751 127.392H110.559C110.825 126.859 111.204 126.448 111.695 126.16C112.185 125.872 112.756 125.728 113.407 125.728C114.356 125.728 115.065 126.005 115.535 126.56C116.015 127.104 116.255 127.952 116.255 129.104V134H113.839V129.216C113.839 128.629 113.732 128.213 113.519 127.968C113.305 127.723 112.985 127.6 112.559 127.6C112.025 127.6 111.599 127.771 111.279 128.112C110.959 128.443 110.799 128.891 110.799 129.456V134H108.383ZM121.987 134.176C120.931 134.176 120.136 133.915 119.603 133.392C119.07 132.859 118.803 132.064 118.803 131.008V127.696H117.267V125.888H118.803V123.904L121.219 123.312V125.888H123.299V127.696H121.219V130.88C121.219 131.392 121.326 131.744 121.539 131.936C121.752 132.128 122.024 132.224 122.355 132.224C122.558 132.224 122.723 132.213 122.851 132.192C122.99 132.16 123.134 132.117 123.283 132.064V133.936C123.08 134.021 122.867 134.08 122.643 134.112C122.419 134.155 122.2 134.176 121.987 134.176ZM128.301 134.176C127.437 134.176 126.685 134.005 126.045 133.664C125.415 133.312 124.925 132.821 124.573 132.192C124.231 131.563 124.061 130.811 124.061 129.936C124.061 129.072 124.231 128.325 124.573 127.696C124.925 127.067 125.415 126.581 126.045 126.24C126.685 125.899 127.437 125.728 128.301 125.728C129.165 125.728 129.917 125.899 130.557 126.24C131.197 126.581 131.687 127.067 132.029 127.696C132.381 128.325 132.557 129.072 132.557 129.936C132.557 130.811 132.381 131.563 132.029 132.192C131.687 132.821 131.197 133.312 130.557 133.664C129.917 134.005 129.165 134.176 128.301 134.176ZM128.301 132.352C128.855 132.352 129.293 132.155 129.613 131.76C129.943 131.365 130.109 130.757 130.109 129.936C130.109 129.115 129.943 128.512 129.613 128.128C129.293 127.744 128.855 127.552 128.301 127.552C127.746 127.552 127.303 127.744 126.973 128.128C126.653 128.512 126.493 129.115 126.493 129.936C126.493 130.757 126.653 131.365 126.973 131.76C127.303 132.155 127.746 132.352 128.301 132.352ZM138.793 134V122.72H143.913C145.182 122.72 146.163 123.024 146.857 123.632C147.55 124.229 147.897 125.067 147.897 126.144C147.897 126.848 147.737 127.456 147.417 127.968C147.107 128.469 146.659 128.859 146.073 129.136C145.497 129.403 144.803 129.536 143.993 129.536L144.185 129.184H144.841C145.299 129.184 145.705 129.307 146.057 129.552C146.419 129.797 146.718 130.155 146.953 130.624L148.633 134H145.881L144.137 130.368C144.009 130.059 143.806 129.856 143.529 129.76C143.262 129.653 142.953 129.6 142.601 129.6H141.289V134H138.793ZM141.289 127.808H143.481C144.131 127.808 144.627 127.675 144.969 127.408C145.31 127.141 145.481 126.747 145.481 126.224C145.481 125.701 145.31 125.312 144.969 125.056C144.627 124.789 144.131 124.656 143.481 124.656H141.289V127.808ZM153.113 134.176C152.409 134.176 151.79 134.005 151.257 133.664C150.723 133.323 150.307 132.837 150.009 132.208C149.71 131.579 149.561 130.821 149.561 129.936C149.561 129.061 149.71 128.309 150.009 127.68C150.307 127.051 150.723 126.571 151.257 126.24C151.79 125.899 152.409 125.728 153.113 125.728C153.763 125.728 154.345 125.888 154.857 126.208C155.379 126.517 155.721 126.939 155.881 127.472H155.705L155.897 125.888H158.217C158.185 126.24 158.153 126.597 158.121 126.96C158.099 127.312 158.089 127.659 158.089 128V134H155.689L155.673 132.48H155.865C155.694 132.992 155.353 133.403 154.841 133.712C154.329 134.021 153.753 134.176 153.113 134.176ZM153.849 132.352C154.403 132.352 154.851 132.155 155.193 131.76C155.534 131.365 155.705 130.757 155.705 129.936C155.705 129.115 155.534 128.512 155.193 128.128C154.851 127.744 154.403 127.552 153.849 127.552C153.294 127.552 152.846 127.744 152.505 128.128C152.163 128.512 151.993 129.115 151.993 129.936C151.993 130.757 152.158 131.365 152.489 131.76C152.83 132.155 153.283 132.352 153.849 132.352ZM153.145 125.12L154.793 121.84H157.097L154.745 125.12H153.145ZM160.07 137.456V128C160.07 127.659 160.059 127.312 160.038 126.96C160.017 126.597 159.985 126.24 159.942 125.888H162.262L162.454 127.472H162.278C162.438 126.939 162.774 126.517 163.286 126.208C163.798 125.888 164.385 125.728 165.046 125.728C165.75 125.728 166.369 125.899 166.902 126.24C167.435 126.571 167.851 127.051 168.15 127.68C168.459 128.309 168.614 129.061 168.614 129.936C168.614 130.821 168.459 131.579 168.15 132.208C167.851 132.837 167.435 133.323 166.902 133.664C166.369 134.005 165.75 134.176 165.046 134.176C164.395 134.176 163.814 134.021 163.302 133.712C162.801 133.403 162.465 132.992 162.294 132.48H162.486V137.456H160.07ZM164.31 132.352C164.875 132.352 165.329 132.155 165.67 131.76C166.011 131.365 166.182 130.757 166.182 129.936C166.182 129.115 166.011 128.512 165.67 128.128C165.329 127.744 164.875 127.552 164.31 127.552C163.755 127.552 163.302 127.744 162.95 128.128C162.609 128.512 162.438 129.115 162.438 129.936C162.438 130.757 162.609 131.365 162.95 131.76C163.302 132.155 163.755 132.352 164.31 132.352ZM170.18 134V125.888H172.596V134H170.18ZM170.084 124.56V122.304H172.676V124.56H170.084ZM177.754 134.176C177.05 134.176 176.426 134.005 175.882 133.664C175.349 133.323 174.927 132.837 174.618 132.208C174.319 131.579 174.17 130.821 174.17 129.936C174.17 129.061 174.319 128.309 174.618 127.68C174.917 127.051 175.338 126.571 175.882 126.24C176.426 125.899 177.05 125.728 177.754 125.728C178.394 125.728 178.965 125.883 179.466 126.192C179.978 126.491 180.319 126.896 180.49 127.408H180.282V122.224H182.698V134H180.314V132.416H180.522C180.351 132.949 180.01 133.376 179.498 133.696C178.986 134.016 178.405 134.176 177.754 134.176ZM178.474 132.352C179.029 132.352 179.477 132.155 179.818 131.76C180.159 131.365 180.33 130.757 180.33 129.936C180.33 129.115 180.159 128.512 179.818 128.128C179.477 127.744 179.029 127.552 178.474 127.552C177.919 127.552 177.466 127.744 177.114 128.128C176.773 128.512 176.602 129.115 176.602 129.936C176.602 130.757 176.773 131.365 177.114 131.76C177.466 132.155 177.919 132.352 178.474 132.352ZM188.52 134.176C187.656 134.176 186.904 134.005 186.264 133.664C185.634 133.312 185.144 132.821 184.792 132.192C184.45 131.563 184.28 130.811 184.28 129.936C184.28 129.072 184.45 128.325 184.792 127.696C185.144 127.067 185.634 126.581 186.264 126.24C186.904 125.899 187.656 125.728 188.52 125.728C189.384 125.728 190.136 125.899 190.776 126.24C191.416 126.581 191.906 127.067 192.248 127.696C192.6 128.325 192.776 129.072 192.776 129.936C192.776 130.811 192.6 131.563 192.248 132.192C191.906 132.821 191.416 133.312 190.776 133.664C190.136 134.005 189.384 134.176 188.52 134.176ZM188.52 132.352C189.074 132.352 189.512 132.155 189.832 131.76C190.162 131.365 190.328 130.757 190.328 129.936C190.328 129.115 190.162 128.512 189.832 128.128C189.512 127.744 189.074 127.552 188.52 127.552C187.965 127.552 187.522 127.744 187.192 128.128C186.872 128.512 186.712 129.115 186.712 129.936C186.712 130.757 186.872 131.365 187.192 131.76C187.522 132.155 187.965 132.352 188.52 132.352Z" fill="black"/>
<path d="M6.75363 156.126C5.7643 156.126 4.9243 155.921 4.23363 155.51C3.54297 155.099 3.01097 154.516 2.63763 153.76C2.27363 153.004 2.09163 152.103 2.09163 151.058C2.09163 150.013 2.27363 149.117 2.63763 148.37C3.01097 147.614 3.54297 147.031 4.23363 146.62C4.9243 146.209 5.7643 146.004 6.75363 146.004C7.45363 146.004 8.07897 146.111 8.62963 146.326C9.1803 146.541 9.66097 146.853 10.0716 147.264L9.63763 148.188C9.18963 147.796 8.7463 147.511 8.30763 147.334C7.86897 147.147 7.35563 147.054 6.76763 147.054C5.6383 147.054 4.77963 147.404 4.19163 148.104C3.60363 148.804 3.30963 149.789 3.30963 151.058C3.30963 152.327 3.60363 153.317 4.19163 154.026C4.77963 154.726 5.6383 155.076 6.76763 155.076C7.35563 155.076 7.86897 154.987 8.30763 154.81C8.7463 154.623 9.18963 154.329 9.63763 153.928L10.0716 154.866C9.66097 155.267 9.1803 155.58 8.62963 155.804C8.07897 156.019 7.45363 156.126 6.75363 156.126ZM14.2918 156.126C13.6198 156.126 13.0318 155.981 12.5278 155.692C12.0331 155.393 11.6504 154.973 11.3798 154.432C11.1091 153.881 10.9738 153.233 10.9738 152.486C10.9738 151.73 11.1091 151.081 11.3798 150.54C11.6504 149.999 12.0331 149.583 12.5278 149.294C13.0318 148.995 13.6198 148.846 14.2918 148.846C14.9731 148.846 15.5611 148.995 16.0558 149.294C16.5598 149.583 16.9471 149.999 17.2178 150.54C17.4978 151.081 17.6378 151.73 17.6378 152.486C17.6378 153.233 17.4978 153.881 17.2178 154.432C16.9471 154.973 16.5598 155.393 16.0558 155.692C15.5611 155.981 14.9731 156.126 14.2918 156.126ZM14.2918 155.202C14.9638 155.202 15.4958 154.973 15.8878 154.516C16.2798 154.049 16.4758 153.373 16.4758 152.486C16.4758 151.59 16.2751 150.913 15.8738 150.456C15.4818 149.989 14.9544 149.756 14.2918 149.756C13.6291 149.756 13.1018 149.989 12.7098 150.456C12.3178 150.913 12.1218 151.59 12.1218 152.486C12.1218 153.373 12.3178 154.049 12.7098 154.516C13.1018 154.973 13.6291 155.202 14.2918 155.202ZM19.4058 156V150.596C19.4058 150.335 19.3918 150.069 19.3638 149.798C19.3451 149.518 19.3218 149.243 19.2938 148.972H20.3858L20.5258 150.512H20.3578C20.5631 149.971 20.8898 149.56 21.3378 149.28C21.7951 148.991 22.3225 148.846 22.9198 148.846C23.7505 148.846 24.3758 149.07 24.7958 149.518C25.2251 149.957 25.4398 150.652 25.4398 151.604V156H24.3058V151.674C24.3058 151.011 24.1705 150.531 23.8998 150.232C23.6385 149.924 23.2278 149.77 22.6678 149.77C22.0145 149.77 21.4965 149.971 21.1138 150.372C20.7311 150.773 20.5398 151.31 20.5398 151.982V156H19.4058ZM29.9469 156.126C29.3869 156.126 28.8643 156.051 28.3789 155.902C27.8936 155.743 27.4923 155.524 27.1749 155.244L27.5669 154.446C27.9123 154.717 28.2856 154.917 28.6869 155.048C29.0976 155.179 29.5223 155.244 29.9609 155.244C30.5209 155.244 30.9409 155.146 31.2209 154.95C31.5103 154.745 31.6549 154.465 31.6549 154.11C31.6549 153.839 31.5616 153.625 31.3749 153.466C31.1976 153.298 30.9036 153.167 30.4929 153.074L29.1909 152.808C28.5936 152.677 28.1456 152.458 27.8469 152.15C27.5483 151.833 27.3989 151.431 27.3989 150.946C27.3989 150.535 27.5063 150.176 27.7209 149.868C27.9356 149.551 28.2483 149.303 28.6589 149.126C29.0696 148.939 29.5503 148.846 30.1009 148.846C30.6143 148.846 31.0856 148.925 31.5149 149.084C31.9536 149.233 32.3176 149.453 32.6069 149.742L32.2009 150.526C31.9209 150.255 31.5989 150.055 31.2349 149.924C30.8803 149.784 30.5116 149.714 30.1289 149.714C29.5783 149.714 29.1629 149.826 28.8829 150.05C28.6123 150.265 28.4769 150.549 28.4769 150.904C28.4769 151.175 28.5609 151.399 28.7289 151.576C28.9063 151.744 29.1769 151.87 29.5409 151.954L30.8429 152.22C31.4776 152.36 31.9489 152.579 32.2569 152.878C32.5743 153.167 32.7329 153.559 32.7329 154.054C32.7329 154.474 32.6163 154.843 32.3829 155.16C32.1496 155.468 31.8229 155.706 31.4029 155.874C30.9923 156.042 30.5069 156.126 29.9469 156.126ZM37.0322 156.126C36.2016 156.126 35.5716 155.897 35.1422 155.44C34.7222 154.983 34.5122 154.283 34.5122 153.34V148.972H35.6462V153.312C35.6462 153.956 35.7769 154.432 36.0382 154.74C36.2996 155.039 36.7056 155.188 37.2562 155.188C37.8722 155.188 38.3669 154.987 38.7402 154.586C39.1136 154.185 39.3002 153.648 39.3002 152.976V148.972H40.4342V156H39.3282V154.418H39.5102C39.3142 154.959 38.9969 155.379 38.5582 155.678C38.1289 155.977 37.6202 156.126 37.0322 156.126ZM42.6343 156V145.696H43.7683V156H42.6343ZM48.4623 156.126C47.7716 156.126 47.2443 155.93 46.8803 155.538C46.5163 155.137 46.3343 154.535 46.3343 153.732V149.854H44.9623V148.972H46.3343V147.054L47.4683 146.732V148.972H49.4843V149.854H47.4683V153.606C47.4683 154.166 47.5616 154.567 47.7483 154.81C47.9443 155.043 48.2336 155.16 48.6163 155.16C48.7936 155.16 48.9523 155.146 49.0923 155.118C49.2323 155.081 49.3583 155.039 49.4703 154.992V155.944C49.3396 156 49.1809 156.042 48.9943 156.07C48.8169 156.107 48.6396 156.126 48.4623 156.126ZM53.5388 156.126C52.9135 156.126 52.3675 155.981 51.9008 155.692C51.4341 155.393 51.0701 154.973 50.8088 154.432C50.5568 153.891 50.4308 153.242 50.4308 152.486C50.4308 151.721 50.5568 151.067 50.8088 150.526C51.0701 149.985 51.4341 149.569 51.9008 149.28C52.3675 148.991 52.9135 148.846 53.5388 148.846C54.1735 148.846 54.7195 149.009 55.1768 149.336C55.6435 149.653 55.9515 150.087 56.1008 150.638H55.9328L56.0868 148.972H57.1788C57.1508 149.243 57.1228 149.518 57.0948 149.798C57.0761 150.069 57.0668 150.335 57.0668 150.596V156H55.9328V154.348H56.0868C55.9375 154.899 55.6295 155.333 55.1628 155.65C54.6961 155.967 54.1548 156.126 53.5388 156.126ZM53.7628 155.202C54.4348 155.202 54.9668 154.973 55.3588 154.516C55.7508 154.049 55.9468 153.373 55.9468 152.486C55.9468 151.59 55.7508 150.913 55.3588 150.456C54.9668 149.989 54.4348 149.756 53.7628 149.756C53.1001 149.756 52.5681 149.989 52.1668 150.456C51.7748 150.913 51.5788 151.59 51.5788 152.486C51.5788 153.373 51.7748 154.049 52.1668 154.516C52.5681 154.973 53.1001 155.202 53.7628 155.202ZM61.5973 156.126C61.0373 156.126 60.5147 156.051 60.0293 155.902C59.544 155.743 59.1427 155.524 58.8253 155.244L59.2173 154.446C59.5627 154.717 59.936 154.917 60.3373 155.048C60.748 155.179 61.1727 155.244 61.6113 155.244C62.1713 155.244 62.5913 155.146 62.8713 154.95C63.1607 154.745 63.3053 154.465 63.3053 154.11C63.3053 153.839 63.212 153.625 63.0253 153.466C62.848 153.298 62.554 153.167 62.1433 153.074L60.8413 152.808C60.244 152.677 59.796 152.458 59.4973 152.15C59.1987 151.833 59.0493 151.431 59.0493 150.946C59.0493 150.535 59.1567 150.176 59.3713 149.868C59.586 149.551 59.8987 149.303 60.3093 149.126C60.72 148.939 61.2007 148.846 61.7513 148.846C62.2647 148.846 62.736 148.925 63.1653 149.084C63.604 149.233 63.968 149.453 64.2573 149.742L63.8513 150.526C63.5713 150.255 63.2493 150.055 62.8853 149.924C62.5307 149.784 62.162 149.714 61.7793 149.714C61.2287 149.714 60.8133 149.826 60.5333 150.05C60.2627 150.265 60.1273 150.549 60.1273 150.904C60.1273 151.175 60.2113 151.399 60.3793 151.576C60.5567 151.744 60.8273 151.87 61.1913 151.954L62.4933 152.22C63.128 152.36 63.5993 152.579 63.9073 152.878C64.2247 153.167 64.3833 153.559 64.3833 154.054C64.3833 154.474 64.2667 154.843 64.0333 155.16C63.8 155.468 63.4733 155.706 63.0533 155.874C62.6427 156.042 62.1573 156.126 61.5973 156.126ZM69.855 156V150.596C69.855 150.335 69.841 150.069 69.813 149.798C69.7944 149.518 69.771 149.243 69.743 148.972H70.835L70.975 150.512H70.807C70.9937 149.98 71.2877 149.569 71.689 149.28C72.0997 148.991 72.5944 148.846 73.173 148.846C73.761 148.846 74.237 148.986 74.601 149.266C74.9744 149.546 75.2264 149.98 75.357 150.568H75.147C75.3244 150.036 75.637 149.616 76.085 149.308C76.533 149 77.0557 148.846 77.653 148.846C78.4277 148.846 79.011 149.07 79.403 149.518C79.795 149.957 79.991 150.652 79.991 151.604V156H78.857V151.674C78.857 151.011 78.7404 150.531 78.507 150.232C78.2737 149.924 77.9004 149.77 77.387 149.77C76.799 149.77 76.3324 149.975 75.987 150.386C75.651 150.787 75.483 151.329 75.483 152.01V156H74.349V151.674C74.349 151.011 74.2324 150.531 73.999 150.232C73.7657 149.924 73.3924 149.77 72.879 149.77C72.291 149.77 71.829 149.975 71.493 150.386C71.157 150.787 70.989 151.329 70.989 152.01V156H69.855ZM84.82 156.126C84.1947 156.126 83.6487 155.981 83.182 155.692C82.7154 155.393 82.3514 154.973 82.09 154.432C81.838 153.891 81.712 153.242 81.712 152.486C81.712 151.721 81.838 151.067 82.09 150.526C82.3514 149.985 82.7154 149.569 83.182 149.28C83.6487 148.991 84.1947 148.846 84.82 148.846C85.4547 148.846 86.0007 149.009 86.458 149.336C86.9247 149.653 87.2327 150.087 87.382 150.638H87.214L87.368 148.972H88.46C88.432 149.243 88.404 149.518 88.376 149.798C88.3574 150.069 88.348 150.335 88.348 150.596V156H87.214V154.348H87.368C87.2187 154.899 86.9107 155.333 86.444 155.65C85.9774 155.967 85.436 156.126 84.82 156.126ZM85.044 155.202C85.716 155.202 86.248 154.973 86.64 154.516C87.032 154.049 87.228 153.373 87.228 152.486C87.228 151.59 87.032 150.913 86.64 150.456C86.248 149.989 85.716 149.756 85.044 149.756C84.3814 149.756 83.8494 149.989 83.448 150.456C83.056 150.913 82.86 151.59 82.86 152.486C82.86 153.373 83.056 154.049 83.448 154.516C83.8494 154.973 84.3814 155.202 85.044 155.202ZM90.5126 156V150.666C90.5126 150.386 90.5032 150.101 90.4846 149.812C90.4752 149.523 90.4566 149.243 90.4286 148.972H91.5206L91.6606 150.68L91.4646 150.694C91.5579 150.274 91.7212 149.929 91.9546 149.658C92.1879 149.387 92.4632 149.187 92.7806 149.056C93.0979 148.916 93.4292 148.846 93.7746 148.846C93.9146 148.846 94.0359 148.851 94.1386 148.86C94.2506 148.869 94.3532 148.893 94.4466 148.93L94.4326 149.938C94.2926 149.891 94.1619 149.863 94.0406 149.854C93.9286 149.835 93.7979 149.826 93.6486 149.826C93.2379 149.826 92.8786 149.924 92.5706 150.12C92.2719 150.316 92.0432 150.568 91.8846 150.876C91.7352 151.184 91.6606 151.511 91.6606 151.856V156H90.5126ZM98.4985 156.126C97.8078 156.126 97.2058 155.977 96.6925 155.678C96.1885 155.379 95.7965 154.955 95.5165 154.404C95.2458 153.853 95.1105 153.2 95.1105 152.444C95.1105 151.679 95.2505 151.03 95.5305 150.498C95.8105 149.957 96.2025 149.546 96.7065 149.266C97.2198 148.986 97.8171 148.846 98.4985 148.846C98.9465 148.846 99.3805 148.925 99.8005 149.084C100.23 149.243 100.584 149.467 100.864 149.756L100.458 150.568C100.178 150.297 99.8705 150.097 99.5345 149.966C99.2078 149.835 98.8858 149.77 98.5685 149.77C97.8405 149.77 97.2758 149.999 96.8745 150.456C96.4731 150.913 96.2725 151.581 96.2725 152.458C96.2725 153.326 96.4731 153.998 96.8745 154.474C97.2758 154.95 97.8405 155.188 98.5685 155.188C98.8765 155.188 99.1938 155.127 99.5205 155.006C99.8565 154.885 100.169 154.684 100.458 154.404L100.864 155.202C100.575 155.501 100.216 155.729 99.7865 155.888C99.3571 156.047 98.9278 156.126 98.4985 156.126ZM105.095 156.126C104.47 156.126 103.924 155.981 103.457 155.692C102.991 155.393 102.627 154.973 102.365 154.432C102.113 153.891 101.987 153.242 101.987 152.486C101.987 151.721 102.113 151.067 102.365 150.526C102.627 149.985 102.991 149.569 103.457 149.28C103.924 148.991 104.47 148.846 105.095 148.846C105.73 148.846 106.276 149.009 106.733 149.336C107.2 149.653 107.508 150.087 107.657 150.638H107.489L107.643 148.972H108.735C108.707 149.243 108.679 149.518 108.651 149.798C108.633 150.069 108.623 150.335 108.623 150.596V156H107.489V154.348H107.643C107.494 154.899 107.186 155.333 106.719 155.65C106.253 155.967 105.711 156.126 105.095 156.126ZM105.319 155.202C105.991 155.202 106.523 154.973 106.915 154.516C107.307 154.049 107.503 153.373 107.503 152.486C107.503 151.59 107.307 150.913 106.915 150.456C106.523 149.989 105.991 149.756 105.319 149.756C104.657 149.756 104.125 149.989 103.723 150.456C103.331 150.913 103.135 151.59 103.135 152.486C103.135 153.373 103.331 154.049 103.723 154.516C104.125 154.973 104.657 155.202 105.319 155.202ZM113.476 156.126C112.86 156.126 112.319 155.981 111.852 155.692C111.385 155.393 111.021 154.973 110.76 154.432C110.508 153.891 110.382 153.242 110.382 152.486C110.382 151.721 110.508 151.067 110.76 150.526C111.021 149.985 111.385 149.569 111.852 149.28C112.319 148.991 112.86 148.846 113.476 148.846C114.111 148.846 114.657 149.005 115.114 149.322C115.581 149.639 115.893 150.069 116.052 150.61H115.884V145.696H117.018V156H115.898V154.32H116.052C115.903 154.88 115.595 155.323 115.128 155.65C114.661 155.967 114.111 156.126 113.476 156.126ZM113.714 155.202C114.377 155.202 114.909 154.973 115.31 154.516C115.711 154.049 115.912 153.373 115.912 152.486C115.912 151.59 115.711 150.913 115.31 150.456C114.909 149.989 114.377 149.756 113.714 149.756C113.051 149.756 112.519 149.989 112.118 150.456C111.726 150.913 111.53 151.59 111.53 152.486C111.53 153.373 111.726 154.049 112.118 154.516C112.519 154.973 113.051 155.202 113.714 155.202ZM121.884 156.126C121.259 156.126 120.713 155.981 120.246 155.692C119.78 155.393 119.416 154.973 119.154 154.432C118.902 153.891 118.776 153.242 118.776 152.486C118.776 151.721 118.902 151.067 119.154 150.526C119.416 149.985 119.78 149.569 120.246 149.28C120.713 148.991 121.259 148.846 121.884 148.846C122.519 148.846 123.065 149.009 123.522 149.336C123.989 149.653 124.297 150.087 124.446 150.638H124.278L124.432 148.972H125.524C125.496 149.243 125.468 149.518 125.44 149.798C125.422 150.069 125.412 150.335 125.412 150.596V156H124.278V154.348H124.432C124.283 154.899 123.975 155.333 123.508 155.65C123.042 155.967 122.5 156.126 121.884 156.126ZM122.108 155.202C122.78 155.202 123.312 154.973 123.704 154.516C124.096 154.049 124.292 153.373 124.292 152.486C124.292 151.59 124.096 150.913 123.704 150.456C123.312 149.989 122.78 149.756 122.108 149.756C121.446 149.756 120.914 149.989 120.512 150.456C120.12 150.913 119.924 151.59 119.924 152.486C119.924 153.373 120.12 154.049 120.512 154.516C120.914 154.973 121.446 155.202 122.108 155.202ZM129.943 156.126C129.383 156.126 128.86 156.051 128.375 155.902C127.89 155.743 127.488 155.524 127.171 155.244L127.563 154.446C127.908 154.717 128.282 154.917 128.683 155.048C129.094 155.179 129.518 155.244 129.957 155.244C130.517 155.244 130.937 155.146 131.217 154.95C131.506 154.745 131.651 154.465 131.651 154.11C131.651 153.839 131.558 153.625 131.371 153.466C131.194 153.298 130.9 153.167 130.489 153.074L129.187 152.808C128.59 152.677 128.142 152.458 127.843 152.15C127.544 151.833 127.395 151.431 127.395 150.946C127.395 150.535 127.502 150.176 127.717 149.868C127.932 149.551 128.244 149.303 128.655 149.126C129.066 148.939 129.546 148.846 130.097 148.846C130.61 148.846 131.082 148.925 131.511 149.084C131.95 149.233 132.314 149.453 132.603 149.742L132.197 150.526C131.917 150.255 131.595 150.055 131.231 149.924C130.876 149.784 130.508 149.714 130.125 149.714C129.574 149.714 129.159 149.826 128.879 150.05C128.608 150.265 128.473 150.549 128.473 150.904C128.473 151.175 128.557 151.399 128.725 151.576C128.902 151.744 129.173 151.87 129.537 151.954L130.839 152.22C131.474 152.36 131.945 152.579 132.253 152.878C132.57 153.167 132.729 153.559 132.729 154.054C132.729 154.474 132.612 154.843 132.379 155.16C132.146 155.468 131.819 155.706 131.399 155.874C130.988 156.042 130.503 156.126 129.943 156.126ZM141.155 156.126C140.464 156.126 139.862 155.977 139.349 155.678C138.845 155.379 138.453 154.955 138.173 154.404C137.902 153.853 137.767 153.2 137.767 152.444C137.767 151.679 137.907 151.03 138.187 150.498C138.467 149.957 138.859 149.546 139.363 149.266C139.876 148.986 140.473 148.846 141.155 148.846C141.603 148.846 142.037 148.925 142.457 149.084C142.886 149.243 143.241 149.467 143.521 149.756L143.115 150.568C142.835 150.297 142.527 150.097 142.191 149.966C141.864 149.835 141.542 149.77 141.225 149.77C140.497 149.77 139.932 149.999 139.531 150.456C139.129 150.913 138.929 151.581 138.929 152.458C138.929 153.326 139.129 153.998 139.531 154.474C139.932 154.95 140.497 155.188 141.225 155.188C141.533 155.188 141.85 155.127 142.177 155.006C142.513 154.885 142.825 154.684 143.115 154.404L143.521 155.202C143.231 155.501 142.872 155.729 142.443 155.888C142.013 156.047 141.584 156.126 141.155 156.126ZM147.88 156.126C147.208 156.126 146.62 155.981 146.116 155.692C145.621 155.393 145.238 154.973 144.968 154.432C144.697 153.881 144.562 153.233 144.562 152.486C144.562 151.73 144.697 151.081 144.968 150.54C145.238 149.999 145.621 149.583 146.116 149.294C146.62 148.995 147.208 148.846 147.88 148.846C148.561 148.846 149.149 148.995 149.644 149.294C150.148 149.583 150.535 149.999 150.806 150.54C151.086 151.081 151.226 151.73 151.226 152.486C151.226 153.233 151.086 153.881 150.806 154.432C150.535 154.973 150.148 155.393 149.644 155.692C149.149 155.981 148.561 156.126 147.88 156.126ZM147.88 155.202C148.552 155.202 149.084 154.973 149.476 154.516C149.868 154.049 150.064 153.373 150.064 152.486C150.064 151.59 149.863 150.913 149.462 150.456C149.07 149.989 148.542 149.756 147.88 149.756C147.217 149.756 146.69 149.989 146.298 150.456C145.906 150.913 145.71 151.59 145.71 152.486C145.71 153.373 145.906 154.049 146.298 154.516C146.69 154.973 147.217 155.202 147.88 155.202ZM152.994 156V150.596C152.994 150.335 152.98 150.069 152.952 149.798C152.933 149.518 152.91 149.243 152.882 148.972H153.974L154.114 150.512H153.946C154.132 149.98 154.426 149.569 154.828 149.28C155.238 148.991 155.733 148.846 156.312 148.846C156.9 148.846 157.376 148.986 157.74 149.266C158.113 149.546 158.365 149.98 158.496 150.568H158.286C158.463 150.036 158.776 149.616 159.224 149.308C159.672 149 160.194 148.846 160.792 148.846C161.566 148.846 162.15 149.07 162.542 149.518C162.934 149.957 163.13 150.652 163.13 151.604V156H161.996V151.674C161.996 151.011 161.879 150.531 161.646 150.232C161.412 149.924 161.039 149.77 160.526 149.77C159.938 149.77 159.471 149.975 159.126 150.386C158.79 150.787 158.622 151.329 158.622 152.01V156H157.488V151.674C157.488 151.011 157.371 150.531 157.138 150.232C156.904 149.924 156.531 149.77 156.018 149.77C155.43 149.77 154.968 149.975 154.632 150.386C154.296 150.787 154.128 151.329 154.128 152.01V156H152.994ZM171.609 156.126C170.984 156.126 170.438 155.981 169.971 155.692C169.504 155.393 169.14 154.973 168.879 154.432C168.627 153.891 168.501 153.242 168.501 152.486C168.501 151.721 168.627 151.067 168.879 150.526C169.14 149.985 169.504 149.569 169.971 149.28C170.438 148.991 170.984 148.846 171.609 148.846C172.244 148.846 172.79 149.009 173.247 149.336C173.714 149.653 174.022 150.087 174.171 150.638H174.003L174.157 148.972H175.249C175.221 149.243 175.193 149.518 175.165 149.798C175.146 150.069 175.137 150.335 175.137 150.596V156H174.003V154.348H174.157C174.008 154.899 173.7 155.333 173.233 155.65C172.766 155.967 172.225 156.126 171.609 156.126ZM171.833 155.202C172.505 155.202 173.037 154.973 173.429 154.516C173.821 154.049 174.017 153.373 174.017 152.486C174.017 151.59 173.821 150.913 173.429 150.456C173.037 149.989 172.505 149.756 171.833 149.756C171.17 149.756 170.638 149.989 170.237 150.456C169.845 150.913 169.649 151.59 169.649 152.486C169.649 153.373 169.845 154.049 170.237 154.516C170.638 154.973 171.17 155.202 171.833 155.202ZM177.33 159.024V150.596C177.33 150.335 177.316 150.069 177.288 149.798C177.269 149.518 177.246 149.243 177.218 148.972H178.31L178.464 150.638H178.296C178.445 150.087 178.748 149.653 179.206 149.336C179.663 149.009 180.209 148.846 180.844 148.846C181.478 148.846 182.024 148.991 182.482 149.28C182.948 149.569 183.312 149.985 183.574 150.526C183.835 151.067 183.966 151.721 183.966 152.486C183.966 153.242 183.835 153.891 183.574 154.432C183.322 154.973 182.962 155.393 182.496 155.692C182.029 155.981 181.478 156.126 180.844 156.126C180.218 156.126 179.677 155.967 179.22 155.65C178.762 155.333 178.459 154.899 178.31 154.348H178.464V159.024H177.33ZM180.62 155.202C181.292 155.202 181.824 154.973 182.216 154.516C182.617 154.049 182.818 153.373 182.818 152.486C182.818 151.59 182.617 150.913 182.216 150.456C181.824 149.989 181.292 149.756 180.62 149.756C179.957 149.756 179.425 149.989 179.024 150.456C178.632 150.913 178.436 151.59 178.436 152.486C178.436 153.373 178.632 154.049 179.024 154.516C179.425 154.973 179.957 155.202 180.62 155.202ZM188.846 156.126C187.745 156.126 186.877 155.809 186.242 155.174C185.607 154.53 185.29 153.639 185.29 152.5C185.29 151.763 185.43 151.123 185.71 150.582C185.99 150.031 186.382 149.607 186.886 149.308C187.39 149 187.969 148.846 188.622 148.846C189.266 148.846 189.807 148.981 190.246 149.252C190.685 149.523 191.021 149.91 191.254 150.414C191.487 150.909 191.604 151.497 191.604 152.178V152.598H186.158V151.884H190.862L190.624 152.066C190.624 151.319 190.456 150.736 190.12 150.316C189.784 149.896 189.285 149.686 188.622 149.686C187.922 149.686 187.376 149.933 186.984 150.428C186.592 150.913 186.396 151.571 186.396 152.402V152.528C186.396 153.405 186.611 154.073 187.04 154.53C187.479 154.978 188.09 155.202 188.874 155.202C189.294 155.202 189.686 155.141 190.05 155.02C190.423 154.889 190.778 154.679 191.114 154.39L191.506 155.188C191.198 155.487 190.806 155.72 190.33 155.888C189.863 156.047 189.369 156.126 188.846 156.126ZM193.339 156V150.596C193.339 150.335 193.325 150.069 193.297 149.798C193.279 149.518 193.255 149.243 193.227 148.972H194.319L194.459 150.512H194.291C194.497 149.971 194.823 149.56 195.271 149.28C195.729 148.991 196.256 148.846 196.853 148.846C197.684 148.846 198.309 149.07 198.729 149.518C199.159 149.957 199.373 150.652 199.373 151.604V156H198.239V151.674C198.239 151.011 198.104 150.531 197.833 150.232C197.572 149.924 197.161 149.77 196.601 149.77C195.948 149.77 195.43 149.971 195.047 150.372C194.665 150.773 194.473 151.31 194.473 151.982V156H193.339ZM204.217 156.126C203.591 156.126 203.045 155.981 202.579 155.692C202.112 155.393 201.748 154.973 201.487 154.432C201.235 153.891 201.109 153.242 201.109 152.486C201.109 151.721 201.235 151.067 201.487 150.526C201.748 149.985 202.112 149.569 202.579 149.28C203.045 148.991 203.591 148.846 204.217 148.846C204.851 148.846 205.397 149.009 205.855 149.336C206.321 149.653 206.629 150.087 206.779 150.638H206.611L206.765 148.972H207.857C207.829 149.243 207.801 149.518 207.773 149.798C207.754 150.069 207.745 150.335 207.745 150.596V156H206.611V154.348H206.765C206.615 154.899 206.307 155.333 205.841 155.65C205.374 155.967 204.833 156.126 204.217 156.126ZM204.441 155.202C205.113 155.202 205.645 154.973 206.037 154.516C206.429 154.049 206.625 153.373 206.625 152.486C206.625 151.59 206.429 150.913 206.037 150.456C205.645 149.989 205.113 149.756 204.441 149.756C203.778 149.756 203.246 149.989 202.845 150.456C202.453 150.913 202.257 151.59 202.257 152.486C202.257 153.373 202.453 154.049 202.845 154.516C203.246 154.973 203.778 155.202 204.441 155.202ZM212.275 156.126C211.715 156.126 211.192 156.051 210.707 155.902C210.222 155.743 209.82 155.524 209.503 155.244L209.895 154.446C210.24 154.717 210.614 154.917 211.015 155.048C211.426 155.179 211.85 155.244 212.289 155.244C212.849 155.244 213.269 155.146 213.549 154.95C213.838 154.745 213.983 154.465 213.983 154.11C213.983 153.839 213.89 153.625 213.703 153.466C213.526 153.298 213.232 153.167 212.821 153.074L211.519 152.808C210.922 152.677 210.474 152.458 210.175 152.15C209.876 151.833 209.727 151.431 209.727 150.946C209.727 150.535 209.834 150.176 210.049 149.868C210.264 149.551 210.576 149.303 210.987 149.126C211.398 148.939 211.878 148.846 212.429 148.846C212.942 148.846 213.414 148.925 213.843 149.084C214.282 149.233 214.646 149.453 214.935 149.742L214.529 150.526C214.249 150.255 213.927 150.055 213.563 149.924C213.208 149.784 212.84 149.714 212.457 149.714C211.906 149.714 211.491 149.826 211.211 150.05C210.94 150.265 210.805 150.549 210.805 150.904C210.805 151.175 210.889 151.399 211.057 151.576C211.234 151.744 211.505 151.87 211.869 151.954L213.171 152.22C213.806 152.36 214.277 152.579 214.585 152.878C214.902 153.167 215.061 153.559 215.061 154.054C215.061 154.474 214.944 154.843 214.711 155.16C214.478 155.468 214.151 155.706 213.731 155.874C213.32 156.042 212.835 156.126 212.275 156.126ZM64.8796 174.126C64.2543 174.126 63.7083 173.981 63.2416 173.692C62.7749 173.393 62.4109 172.973 62.1496 172.432C61.8976 171.891 61.7716 171.242 61.7716 170.486C61.7716 169.721 61.8976 169.067 62.1496 168.526C62.4109 167.985 62.7749 167.569 63.2416 167.28C63.7083 166.991 64.2543 166.846 64.8796 166.846C65.5143 166.846 66.0603 167.009 66.5176 167.336C66.9843 167.653 67.2923 168.087 67.4416 168.638H67.2736L67.4276 166.972H68.5196C68.4916 167.243 68.4636 167.518 68.4356 167.798C68.4169 168.069 68.4076 168.335 68.4076 168.596V174H67.2736V172.348H67.4276C67.2783 172.899 66.9703 173.333 66.5036 173.65C66.0369 173.967 65.4956 174.126 64.8796 174.126ZM65.1036 173.202C65.7756 173.202 66.3076 172.973 66.6996 172.516C67.0916 172.049 67.2876 171.373 67.2876 170.486C67.2876 169.59 67.0916 168.913 66.6996 168.456C66.3076 167.989 65.7756 167.756 65.1036 167.756C64.4409 167.756 63.9089 167.989 63.5076 168.456C63.1156 168.913 62.9196 169.59 62.9196 170.486C62.9196 171.373 63.1156 172.049 63.5076 172.516C63.9089 172.973 64.4409 173.202 65.1036 173.202ZM70.6001 174V163.696H71.7341V174H70.6001ZM77.0301 177.122C76.4234 177.122 75.8634 177.047 75.3501 176.898C74.8367 176.749 74.3747 176.52 73.9641 176.212L74.3001 175.358C74.5894 175.563 74.8741 175.727 75.1541 175.848C75.4341 175.969 75.7234 176.058 76.0221 176.114C76.3207 176.179 76.6381 176.212 76.9741 176.212C77.6647 176.212 78.1874 176.03 78.5421 175.666C78.8967 175.302 79.0741 174.784 79.0741 174.112V172.054H79.2141C79.0647 172.605 78.7567 173.043 78.2901 173.37C77.8234 173.687 77.2774 173.846 76.6521 173.846C76.0081 173.846 75.4481 173.706 74.9721 173.426C74.5054 173.137 74.1414 172.731 73.8801 172.208C73.6281 171.676 73.5021 171.051 73.5021 170.332C73.5021 169.623 73.6281 169.007 73.8801 168.484C74.1414 167.961 74.5054 167.56 74.9721 167.28C75.4481 166.991 76.0081 166.846 76.6521 166.846C77.2867 166.846 77.8327 167.005 78.2901 167.322C78.7567 167.639 79.0647 168.078 79.2141 168.638L79.0741 168.498L79.2001 166.972H80.3061C80.2687 167.243 80.2407 167.518 80.2221 167.798C80.2034 168.069 80.1941 168.335 80.1941 168.596V173.958C80.1941 175.003 79.9234 175.792 79.3821 176.324C78.8501 176.856 78.0661 177.122 77.0301 177.122ZM76.8621 172.922C77.5434 172.922 78.0801 172.698 78.4721 172.25C78.8641 171.793 79.0601 171.153 79.0601 170.332C79.0601 169.511 78.8641 168.876 78.4721 168.428C78.0801 167.98 77.5434 167.756 76.8621 167.756C76.1901 167.756 75.6534 167.98 75.2521 168.428C74.8507 168.876 74.6501 169.511 74.6501 170.332C74.6501 171.153 74.8507 171.793 75.2521 172.25C75.6534 172.698 76.1901 172.922 76.8621 172.922ZM84.8496 174.126C84.019 174.126 83.389 173.897 82.9596 173.44C82.5396 172.983 82.3296 172.283 82.3296 171.34V166.972H83.4636V171.312C83.4636 171.956 83.5943 172.432 83.8556 172.74C84.117 173.039 84.523 173.188 85.0736 173.188C85.6896 173.188 86.1843 172.987 86.5576 172.586C86.931 172.185 87.1176 171.648 87.1176 170.976V166.972H88.2516V174H87.1456V172.418H87.3276C87.1316 172.959 86.8143 173.379 86.3756 173.678C85.9463 173.977 85.4376 174.126 84.8496 174.126ZM90.4517 174V168.596C90.4517 168.335 90.4377 168.069 90.4097 167.798C90.391 167.518 90.3677 167.243 90.3397 166.972H91.4317L91.5717 168.512H91.4037C91.609 167.971 91.9357 167.56 92.3837 167.28C92.841 166.991 93.3684 166.846 93.9657 166.846C94.7964 166.846 95.4217 167.07 95.8417 167.518C96.271 167.957 96.4857 168.652 96.4857 169.604V174H95.3517V169.674C95.3517 169.011 95.2164 168.531 94.9457 168.232C94.6844 167.924 94.2737 167.77 93.7137 167.77C93.0604 167.77 92.5424 167.971 92.1597 168.372C91.777 168.773 91.5857 169.31 91.5857 169.982V174H90.4517ZM100.993 174.126C100.433 174.126 99.9102 174.051 99.4248 173.902C98.9395 173.743 98.5382 173.524 98.2208 173.244L98.6128 172.446C98.9582 172.717 99.3315 172.917 99.7328 173.048C100.143 173.179 100.568 173.244 101.007 173.244C101.567 173.244 101.987 173.146 102.267 172.95C102.556 172.745 102.701 172.465 102.701 172.11C102.701 171.839 102.607 171.625 102.421 171.466C102.243 171.298 101.949 171.167 101.539 171.074L100.237 170.808C99.6395 170.677 99.1915 170.458 98.8928 170.15C98.5942 169.833 98.4448 169.431 98.4448 168.946C98.4448 168.535 98.5522 168.176 98.7668 167.868C98.9815 167.551 99.2942 167.303 99.7048 167.126C100.115 166.939 100.596 166.846 101.147 166.846C101.66 166.846 102.131 166.925 102.561 167.084C102.999 167.233 103.363 167.453 103.653 167.742L103.247 168.526C102.967 168.255 102.645 168.055 102.281 167.924C101.926 167.784 101.557 167.714 101.175 167.714C100.624 167.714 100.209 167.826 99.9288 168.05C99.6582 168.265 99.5228 168.549 99.5228 168.904C99.5228 169.175 99.6068 169.399 99.7748 169.576C99.9522 169.744 100.223 169.87 100.587 169.954L101.889 170.22C102.523 170.36 102.995 170.579 103.303 170.878C103.62 171.167 103.779 171.559 103.779 172.054C103.779 172.474 103.662 172.843 103.429 173.16C103.195 173.468 102.869 173.706 102.449 173.874C102.038 174.042 101.553 174.126 100.993 174.126ZM112.205 174.126C111.514 174.126 110.912 173.977 110.399 173.678C109.895 173.379 109.503 172.955 109.223 172.404C108.952 171.853 108.817 171.2 108.817 170.444C108.817 169.679 108.957 169.03 109.237 168.498C109.517 167.957 109.909 167.546 110.413 167.266C110.926 166.986 111.523 166.846 112.205 166.846C112.653 166.846 113.087 166.925 113.507 167.084C113.936 167.243 114.291 167.467 114.571 167.756L114.165 168.568C113.885 168.297 113.577 168.097 113.241 167.966C112.914 167.835 112.592 167.77 112.275 167.77C111.547 167.77 110.982 167.999 110.581 168.456C110.179 168.913 109.979 169.581 109.979 170.458C109.979 171.326 110.179 171.998 110.581 172.474C110.982 172.95 111.547 173.188 112.275 173.188C112.583 173.188 112.9 173.127 113.227 173.006C113.563 172.885 113.875 172.684 114.165 172.404L114.571 173.202C114.281 173.501 113.922 173.729 113.493 173.888C113.063 174.047 112.634 174.126 112.205 174.126ZM116.182 174V163.696H117.316V174H116.182ZM119.518 174V166.972H120.652V174H119.518ZM119.378 165.376V164.102H120.778V165.376H119.378ZM127.922 177.024V172.348H128.076C127.927 172.899 127.619 173.333 127.152 173.65C126.685 173.967 126.144 174.126 125.528 174.126C124.903 174.126 124.357 173.981 123.89 173.692C123.423 173.393 123.059 172.973 122.798 172.432C122.546 171.891 122.42 171.242 122.42 170.486C122.42 169.721 122.546 169.067 122.798 168.526C123.059 167.985 123.423 167.569 123.89 167.28C124.357 166.991 124.903 166.846 125.528 166.846C126.163 166.846 126.709 167.009 127.166 167.336C127.633 167.653 127.941 168.087 128.09 168.638H127.922L128.076 166.972H129.168C129.14 167.243 129.112 167.518 129.084 167.798C129.065 168.069 129.056 168.335 129.056 168.596V177.024H127.922ZM125.752 173.202C126.424 173.202 126.956 172.973 127.348 172.516C127.74 172.049 127.936 171.373 127.936 170.486C127.936 169.59 127.74 168.913 127.348 168.456C126.956 167.989 126.424 167.756 125.752 167.756C125.089 167.756 124.557 167.989 124.156 168.456C123.764 168.913 123.568 169.59 123.568 170.486C123.568 171.373 123.764 172.049 124.156 172.516C124.557 172.973 125.089 173.202 125.752 173.202ZM133.727 174.126C132.896 174.126 132.266 173.897 131.837 173.44C131.417 172.983 131.207 172.283 131.207 171.34V166.972H132.341V171.312C132.341 171.956 132.471 172.432 132.733 172.74C132.994 173.039 133.4 173.188 133.951 173.188C134.567 173.188 135.061 172.987 135.435 172.586C135.808 172.185 135.995 171.648 135.995 170.976V166.972H137.129V174H136.023V172.418H136.205C136.009 172.959 135.691 173.379 135.253 173.678C134.823 173.977 134.315 174.126 133.727 174.126ZM142.451 174.126C141.349 174.126 140.481 173.809 139.847 173.174C139.212 172.53 138.895 171.639 138.895 170.5C138.895 169.763 139.035 169.123 139.315 168.582C139.595 168.031 139.987 167.607 140.491 167.308C140.995 167 141.573 166.846 142.227 166.846C142.871 166.846 143.412 166.981 143.851 167.252C144.289 167.523 144.625 167.91 144.859 168.414C145.092 168.909 145.209 169.497 145.209 170.178V170.598H139.763V169.884H144.467L144.229 170.066C144.229 169.319 144.061 168.736 143.725 168.316C143.389 167.896 142.889 167.686 142.227 167.686C141.527 167.686 140.981 167.933 140.589 168.428C140.197 168.913 140.001 169.571 140.001 170.402V170.528C140.001 171.405 140.215 172.073 140.645 172.53C141.083 172.978 141.695 173.202 142.479 173.202C142.899 173.202 143.291 173.141 143.655 173.02C144.028 172.889 144.383 172.679 144.719 172.39L145.111 173.188C144.803 173.487 144.411 173.72 143.935 173.888C143.468 174.047 142.973 174.126 142.451 174.126ZM149.282 174.126C148.722 174.126 148.199 174.051 147.714 173.902C147.229 173.743 146.827 173.524 146.51 173.244L146.902 172.446C147.247 172.717 147.621 172.917 148.022 173.048C148.433 173.179 148.857 173.244 149.296 173.244C149.856 173.244 150.276 173.146 150.556 172.95C150.845 172.745 150.99 172.465 150.99 172.11C150.99 171.839 150.897 171.625 150.71 171.466C150.533 171.298 150.239 171.167 149.828 171.074L148.526 170.808C147.929 170.677 147.481 170.458 147.182 170.15C146.883 169.833 146.734 169.431 146.734 168.946C146.734 168.535 146.841 168.176 147.056 167.868C147.271 167.551 147.583 167.303 147.994 167.126C148.405 166.939 148.885 166.846 149.436 166.846C149.949 166.846 150.421 166.925 150.85 167.084C151.289 167.233 151.653 167.453 151.942 167.742L151.536 168.526C151.256 168.255 150.934 168.055 150.57 167.924C150.215 167.784 149.847 167.714 149.464 167.714C148.913 167.714 148.498 167.826 148.218 168.05C147.947 168.265 147.812 168.549 147.812 168.904C147.812 169.175 147.896 169.399 148.064 169.576C148.241 169.744 148.512 169.87 148.876 169.954L150.178 170.22C150.813 170.36 151.284 170.579 151.592 170.878C151.909 171.167 152.068 171.559 152.068 172.054C152.068 172.474 151.951 172.843 151.718 173.16C151.485 173.468 151.158 173.706 150.738 173.874C150.327 174.042 149.842 174.126 149.282 174.126ZM153.597 174V172.572H155.025V174H153.597Z" fill="#3F3F3F"/>
<circle cx="145.5" cy="12.5" r="10.5" fill="#6AEA99"/>
<path d="M150 9L143.812 16L141 12.8182" stroke="white" stroke-width="2" stroke-linecap="round" stroke-linejoin="round"/>
<path d="M121.667 43.6666H98.3333C96.4924 43.6666 95 45.159 95 47V70.3333C95 72.1742 96.4924 73.6666 98.3333 73.6666H121.667C123.508 73.6666 125 72.1742 125 70.3333V47C125 45.159 123.508 43.6666 121.667 43.6666Z" stroke="black" stroke-width="2" stroke-linecap="round" stroke-linejoin="round"/>
<path d="M116.667 40.3334V47" stroke="black" stroke-width="2" stroke-linecap="round" stroke-linejoin="round"/>
<path d="M103.333 40.3334V47" stroke="black" stroke-width="2" stroke-linecap="round" stroke-linejoin="round"/>
<path d="M95 53.6666H125" stroke="black" stroke-width="2" stroke-linecap="round" stroke-linejoin="round"/>
<path d="M105 63.6667L108.333 67L115 60.3334" stroke="black" stroke-width="2" stroke-linecap="round" stroke-linejoin="round"/>
</svg>
