<svg width="99" height="27" viewBox="0 0 99 27" fill="none" xmlns="http://www.w3.org/2000/svg">
<path d="M10.5531 16.4989C10.4258 17.3239 10.0294 18.084 9.42542 18.6614C8.8214 19.2387 8.04344 19.6012 7.21207 19.6927C3.19896 19.961 2.27089 14.6913 3.73021 11.9255C4.43928 10.6735 5.50578 9.66042 6.79382 9.01543C8.08186 8.37044 9.53314 8.1227 10.9628 8.30377C14.0862 8.82754 15.5391 11.8297 15.9616 14.653C16.6016 18.907 15.8015 22.995 14.3806 27C14.9119 26.7573 15.4495 26.5209 15.968 26.2463C17.2948 25.5486 18.5659 24.7499 19.7698 23.8573C21.433 22.6654 22.9384 21.2682 24.2502 19.6991C26.0806 17.5555 27.4411 15.0533 28.2441 12.3534C28.8927 10.0189 29.1266 7.589 28.9354 5.17389C28.4592 8.04461 27.2858 10.7552 25.5175 13.0688C24.341 14.5864 22.9225 15.9006 21.3188 16.9588C21.4345 14.3993 20.7646 11.8656 19.3986 9.69625C18.9399 8.93427 18.4037 8.22149 17.7985 7.56921C16.4558 6.18855 14.7028 5.27685 12.7997 4.96949C11.3777 4.67179 9.91252 4.64146 8.47937 4.88006C2.63572 5.88929 -1.73582 11.5869 0.677169 17.3932C1.05307 18.31 1.58826 19.1533 2.25809 19.8843C2.80163 20.5122 3.47945 21.0103 4.24159 21.342C5.00372 21.6737 5.83073 21.8304 6.66163 21.8006C8.10174 21.7303 9.62506 21.2129 10.3739 19.8843C10.6304 19.3611 10.7785 18.7915 10.8092 18.2099C10.84 17.6282 10.7529 17.0463 10.5531 16.4989Z" fill="url(#paint0_linear_23_90)"/>
<path d="M23.3989 6.80908C25.283 6.80908 26.8104 5.28482 26.8104 3.40454C26.8104 1.52426 25.283 0 23.3989 0C21.5148 0 19.9874 1.52426 19.9874 3.40454C19.9874 5.28482 21.5148 6.80908 23.3989 6.80908Z" fill="url(#paint1_linear_23_90)"/>
<path d="M44.272 22.5L36.664 5.58H40.696L46.48 19.116H45.304L51.088 5.58H54.976L47.368 22.5H44.272ZM56.1364 22.5V10.332H59.7604V22.5H56.1364ZM55.9924 8.34V4.956H59.8804V8.34H55.9924ZM68.4104 22.764C66.8264 22.764 65.6344 22.372 64.8344 21.588C64.0344 20.788 63.6344 19.596 63.6344 18.012V13.044H61.3304V10.332H63.6344V7.356L67.2584 6.468V10.332H70.3784V13.044H67.2584V17.82C67.2584 18.588 67.4184 19.116 67.7384 19.404C68.0584 19.692 68.4664 19.836 68.9624 19.836C69.2664 19.836 69.5144 19.82 69.7064 19.788C69.9144 19.74 70.1304 19.676 70.3544 19.596V22.404C70.0504 22.532 69.7304 22.62 69.3944 22.668C69.0584 22.732 68.7304 22.764 68.4104 22.764ZM76.966 22.764C75.91 22.764 74.982 22.508 74.182 21.996C73.382 21.484 72.758 20.756 72.31 19.812C71.862 18.868 71.638 17.732 71.638 16.404C71.638 15.092 71.862 13.964 72.31 13.02C72.758 12.076 73.382 11.356 74.182 10.86C74.982 10.348 75.91 10.092 76.966 10.092C77.942 10.092 78.814 10.332 79.582 10.812C80.366 11.276 80.878 11.908 81.118 12.708H80.854L81.142 10.332H84.622C84.574 10.86 84.526 11.396 84.478 11.94C84.446 12.468 84.43 12.988 84.43 13.5V22.5H80.83L80.806 20.22H81.094C80.838 20.988 80.326 21.604 79.558 22.068C78.79 22.532 77.926 22.764 76.966 22.764ZM78.07 20.028C78.902 20.028 79.574 19.732 80.086 19.14C80.598 18.548 80.854 17.636 80.854 16.404C80.854 15.172 80.598 14.268 80.086 13.692C79.574 13.116 78.902 12.828 78.07 12.828C77.238 12.828 76.566 13.116 76.054 13.692C75.542 14.268 75.286 15.172 75.286 16.404C75.286 17.636 75.534 18.548 76.03 19.14C76.542 19.732 77.222 20.028 78.07 20.028ZM91.8901 22.764C90.8021 22.764 89.8101 22.644 88.9141 22.404C88.0181 22.164 87.2581 21.828 86.6341 21.396L87.5701 18.996C88.1941 19.38 88.8821 19.684 89.6341 19.908C90.4021 20.132 91.1621 20.244 91.9141 20.244C92.6181 20.244 93.1381 20.132 93.4741 19.908C93.8101 19.684 93.9781 19.38 93.9781 18.996C93.9781 18.676 93.8661 18.428 93.6421 18.252C93.4341 18.076 93.1061 17.948 92.6581 17.868L90.1861 17.412C89.1461 17.204 88.3541 16.82 87.8101 16.26C87.2661 15.7 86.9941 14.972 86.9941 14.076C86.9941 13.292 87.2021 12.604 87.6181 12.012C88.0501 11.404 88.6661 10.932 89.4661 10.596C90.2661 10.26 91.2021 10.092 92.2741 10.092C93.1861 10.092 94.0501 10.204 94.8661 10.428C95.6821 10.652 96.3781 10.996 96.9541 11.46L95.9701 13.788C95.4741 13.42 94.8981 13.124 94.2421 12.9C93.6021 12.676 92.9861 12.564 92.3941 12.564C91.6261 12.564 91.0741 12.692 90.7381 12.948C90.4021 13.188 90.2341 13.5 90.2341 13.884C90.2341 14.172 90.3301 14.412 90.5221 14.604C90.7301 14.796 91.0421 14.94 91.4581 15.036L93.9541 15.492C95.0261 15.684 95.8421 16.044 96.4021 16.572C96.9621 17.1 97.2421 17.828 97.2421 18.756C97.2421 19.604 97.0181 20.324 96.5701 20.916C96.1221 21.508 95.4901 21.964 94.6741 22.284C93.8741 22.604 92.9461 22.764 91.8901 22.764Z" fill="#031C0C"/>
<defs>
<linearGradient id="paint0_linear_23_90" x1="26.3148" y1="2.16" x2="14.3938" y2="26.9489" gradientUnits="userSpaceOnUse">
<stop stop-color="#16A34A"/>
<stop offset="1" stop-color="#4ADE80"/>
</linearGradient>
<linearGradient id="paint1_linear_23_90" x1="26.3148" y1="2.16" x2="14.3938" y2="26.9489" gradientUnits="userSpaceOnUse">
<stop stop-color="#16A34A"/>
<stop offset="1" stop-color="#4ADE80"/>
</linearGradient>
</defs>
</svg>
