<svg width="29" height="27" viewBox="0 0 29 27" fill="none" xmlns="http://www.w3.org/2000/svg">
<path d="M10.5531 16.4989C10.4258 17.3239 10.0294 18.084 9.42542 18.6614C8.8214 19.2387 8.04344 19.6012 7.21207 19.6927C3.19896 19.961 2.27089 14.6913 3.73021 11.9255C4.43928 10.6735 5.50578 9.66042 6.79382 9.01543C8.08186 8.37044 9.53314 8.1227 10.9628 8.30377C14.0862 8.82754 15.5391 11.8297 15.9616 14.653C16.6016 18.907 15.8015 22.995 14.3806 27C14.9119 26.7573 15.4495 26.5209 15.968 26.2463C17.2948 25.5486 18.5659 24.7499 19.7698 23.8573C21.433 22.6654 22.9384 21.2682 24.2502 19.6991C26.0806 17.5555 27.4411 15.0533 28.2441 12.3534C28.8927 10.0189 29.1266 7.589 28.9354 5.17389C28.4592 8.04461 27.2858 10.7552 25.5175 13.0688C24.341 14.5864 22.9225 15.9006 21.3188 16.9588C21.4345 14.3993 20.7646 11.8656 19.3986 9.69625C18.9399 8.93427 18.4037 8.22149 17.7985 7.56921C16.4558 6.18855 14.7028 5.27685 12.7997 4.96949C11.3777 4.67179 9.91252 4.64146 8.47937 4.88006C2.63572 5.88929 -1.73582 11.5869 0.677169 17.3932C1.05307 18.31 1.58826 19.1533 2.25809 19.8843C2.80163 20.5122 3.47945 21.0103 4.24159 21.342C5.00372 21.6737 5.83073 21.8304 6.66163 21.8006C8.10174 21.7303 9.62506 21.2129 10.3739 19.8843C10.6304 19.3611 10.7785 18.7915 10.8092 18.2099C10.84 17.6282 10.7529 17.0463 10.5531 16.4989Z" fill="url(#paint0_linear_13_617)"/>
<path d="M23.3989 6.80908C25.283 6.80908 26.8104 5.28482 26.8104 3.40454C26.8104 1.52426 25.283 0 23.3989 0C21.5148 0 19.9874 1.52426 19.9874 3.40454C19.9874 5.28482 21.5148 6.80908 23.3989 6.80908Z" fill="url(#paint1_linear_13_617)"/>
<defs>
<linearGradient id="paint0_linear_13_617" x1="26.3148" y1="2.16" x2="14.3938" y2="26.9489" gradientUnits="userSpaceOnUse">
<stop stop-color="#16A34A"/>
<stop offset="1" stop-color="#4ADE80"/>
</linearGradient>
<linearGradient id="paint1_linear_13_617" x1="26.3148" y1="2.16" x2="14.3938" y2="26.9489" gradientUnits="userSpaceOnUse">
<stop stop-color="#16A34A"/>
<stop offset="1" stop-color="#4ADE80"/>
</linearGradient>
</defs>
</svg>
