<svg width="114" height="120" viewBox="0 0 114 120" fill="none" xmlns="http://www.w3.org/2000/svg">
<path d="M55.3125 71.8958L69.8958 57.3125C70.5773 56.6447 71.1196 55.8484 71.4914 54.9697C71.8631 54.091 72.0571 53.1473 72.0619 52.1932C72.0667 51.2391 71.8823 50.2935 71.5194 49.4111C71.1565 48.5287 70.6223 47.727 69.9476 47.0523C69.273 46.3777 68.4713 45.8435 67.5889 45.4806C66.7065 45.1177 65.7609 44.9333 64.8068 44.9381C63.8527 44.9429 62.909 45.1368 62.0303 45.5086C61.1516 45.8804 60.3553 46.4227 59.6875 47.1042L45.1042 61.6875C44.4227 62.3553 43.8804 63.1516 43.5086 64.0303C43.1368 64.909 42.9429 65.8527 42.9381 66.8068C42.9333 67.7609 43.1177 68.7065 43.4806 69.5889C43.8435 70.4713 44.3777 71.273 45.0523 71.9477C45.727 72.6223 46.5287 73.1565 47.4111 73.5194C48.2935 73.8823 49.2391 74.0667 50.1932 74.0619C51.1473 74.0571 52.091 73.8632 52.9697 73.4914C53.8484 73.1196 54.6447 72.5773 55.3125 71.8958Z" stroke="black" stroke-width="2" stroke-linecap="round" stroke-linejoin="round"/>
<path d="M52.3958 54.3958L62.6042 64.6042" stroke="black" stroke-width="2" stroke-linecap="round" stroke-linejoin="round"/>
<circle cx="57" cy="61" r="55.5" stroke="#E8F3EC" stroke-width="3"/>
<ellipse cx="91" cy="15.5" rx="6" ry="6.5" fill="#6AEA99"/>
<path d="M94 13L89.875 18L88 15.7273" stroke="white" stroke-width="2" stroke-linecap="round" stroke-linejoin="round"/>
</svg>
