<svg width="115" height="114" viewBox="0 0 115 114" fill="none" xmlns="http://www.w3.org/2000/svg">
<circle cx="57.5" cy="57" r="55.5" stroke="#E8F3EC" stroke-width="3"/>
<circle cx="94.5" cy="12.5" r="10.5" fill="#6AEA99"/>
<path d="M99 9L92.8125 16L90 12.8182" stroke="white" stroke-width="2" stroke-linecap="round" stroke-linejoin="round"/>
<path d="M56.5 71.1667L73.1666 54.5C73.9454 53.7368 74.5652 52.8268 74.9901 51.8226C75.415 50.8184 75.6366 49.7399 75.6421 48.6495C75.6476 47.5591 75.4369 46.4784 75.0222 45.4699C74.6075 44.4614 73.9969 43.5452 73.2259 42.7742C72.4548 42.0031 71.5386 41.3926 70.5301 40.9778C69.5217 40.5631 68.441 40.3524 67.3506 40.3579C66.2602 40.3634 65.1817 40.585 64.1775 41.0099C63.1732 41.4348 62.2632 42.0546 61.5 42.8334L44.8333 59.5C44.0545 60.2633 43.4348 61.1733 43.0099 62.1775C42.585 63.1817 42.3633 64.2602 42.3578 65.3506C42.3523 66.441 42.563 67.5217 42.9778 68.5302C43.3925 69.5386 44.0031 70.4549 44.7741 71.2259C45.5451 71.997 46.4614 72.6075 47.4698 73.0223C48.4783 73.437 49.559 73.6477 50.6494 73.6422C51.7398 73.6367 52.8183 73.4151 53.8225 72.9902C54.8267 72.5653 55.7368 71.9455 56.5 71.1667Z" stroke="black" stroke-width="2" stroke-linecap="round" stroke-linejoin="round"/>
<path d="M53.1667 51.1666L64.8333 62.8333" stroke="black" stroke-width="2" stroke-linecap="round" stroke-linejoin="round"/>
</svg>
