<svg width="16" height="16" viewBox="0 0 16 16" fill="none" xmlns="http://www.w3.org/2000/svg">
<path d="M11.4171 9.54512C11.2255 9.44668 10.271 8.9791 10.0935 8.91582C9.91592 8.84902 9.78584 8.81738 9.65752 9.01426C9.52744 9.20938 9.1583 9.64355 9.04229 9.77539C8.92979 9.90547 8.81553 9.92129 8.62393 9.82461C7.48486 9.25508 6.73779 8.80859 5.98721 7.52012C5.78858 7.17734 6.18584 7.20195 6.55674 6.46191C6.62002 6.33184 6.58838 6.22109 6.53916 6.12266C6.48994 6.02422 6.10322 5.07148 5.94151 4.68301C5.78506 4.30508 5.62334 4.35781 5.50557 4.35078C5.39307 4.34375 5.26475 4.34375 5.13467 4.34375C5.00459 4.34375 4.79541 4.39297 4.61787 4.58457C4.44033 4.77969 3.93936 5.24902 3.93936 6.20176C3.93936 7.15449 4.63369 8.07734 4.72861 8.20742C4.82705 8.3375 6.09444 10.2922 8.04033 11.1342C9.2708 11.665 9.75244 11.7107 10.3677 11.6193C10.7421 11.5631 11.5138 11.1518 11.6737 10.6965C11.8337 10.243 11.8337 9.85449 11.7862 9.77363C11.7388 9.6875 11.6087 9.63828 11.4171 9.54512Z" fill="black"/>
<path d="M15.1384 4.94844C14.7411 4.00449 14.1716 3.15723 13.4456 2.42949C12.7196 1.70352 11.8724 1.13223 10.9267 0.736719C9.95986 0.330664 8.9333 0.125 7.8751 0.125H7.83994C6.77471 0.130273 5.74287 0.341211 4.77256 0.756055C3.83565 1.15684 2.99541 1.72637 2.27647 2.45234C1.55752 3.17832 0.993264 4.02207 0.603029 4.9625C0.198733 5.93633 -0.00517371 6.97168 9.97254e-05 8.03691C0.00537316 9.25684 0.29717 10.468 0.84385 11.5508V14.2227C0.84385 14.6691 1.20596 15.0312 1.65244 15.0312H4.32608C5.40889 15.5779 6.62002 15.8697 7.83994 15.875H7.87686C8.92979 15.875 9.95108 15.6711 10.9126 15.2721C11.853 14.8801 12.6985 14.3176 13.4228 13.5986C14.1487 12.8797 14.72 12.0395 15.119 11.1025C15.5339 10.1322 15.7448 9.10039 15.7501 8.03516C15.7554 6.96465 15.548 5.92578 15.1384 4.94844ZM12.4823 12.6477C11.2501 13.8676 9.61533 14.5391 7.8751 14.5391H7.84522C6.78525 14.5338 5.73233 14.2701 4.80244 13.7744L4.65479 13.6953H2.17979V11.2203L2.10069 11.0727C1.60498 10.1428 1.34131 9.08984 1.33604 8.02988C1.32901 6.27734 1.99873 4.63203 3.22744 3.39277C4.4544 2.15352 6.09444 1.46797 7.84697 1.46094H7.87686C8.75576 1.46094 9.6083 1.63145 10.4116 1.96895C11.1956 2.29766 11.8987 2.77051 12.5034 3.3752C13.1063 3.97812 13.581 4.68301 13.9097 5.46699C14.2507 6.2791 14.4212 7.14043 14.4177 8.02988C14.4071 9.78066 13.7198 11.4207 12.4823 12.6477Z" fill="black"/>
</svg>
